In the beginning of the 20th Century, in the Northeast of Brazil, one of the first Brazilian industrialists is persecuted because he refuses to sell his business to a British company.

Format                                   : Matroska
Format version                           : Version 2
File size                                : 1.34 GiB
Duration                                 : 1h 31mn
Overall bit rate                         : 2 091 Kbps
Writing application                      : HandBrake 0.9.8
Writing library                          : libmkv 0.6.5
Video
ID                                       : 1
Format                                   : AVC
Format/Info                              : Advanced Video Codec
Format profile                           : High@L3.1
Format settings, CABAC                   : Yes
Format settings, ReFrames                : 11 frames
Codec ID                                 : V_MPEG4/ISO/AVC
Duration                                 : 1h 31mn
Bit rate                                 : 1 825 Kbps
Width                                    : 718 pixels
Height                                   : 480 pixels
Display aspect ratio                     : 4:3
Original display aspect ratio            : 4:3
Frame rate                               : 23.976 fps
Color space                              : YUV
Chroma subsampling                       : 4:2:0
Bit depth                                : 8 bits
Scan type                                : Progressive
Bits/(Pixel*Frame)                       : 0.221
Stream size                              : 1.17 GiB (87%)
Writing library                          : x264 core 120
Encoding settings                        : cabac=1 / ref=11 / deblock=1:-2:-2 / analyse=0x3:0x133 / me=umh / subme=11 / psy=1 / psy_rd=1.00:0.00 / mixed_ref=1 / me_range=32 / chroma_me=1 / trellis=2 / 8x8dct=1 / cqm=0 / deadzone=21,11 / fast_pskip=0 / chroma_qp_offset=-2 / threads=4 / sliced_threads=0 / nr=0 / decimate=1 / interlaced=0 / bluray_compat=0 / constrained_intra=0 / bframes=9 / b_pyramid=2 / b_adapt=2 / b_bias=0 / direct=3 / weightb=1 / open_gop=0 / weightp=2 / keyint=240 / keyint_min=24 / scenecut=40 / intra_refresh=0 / rc_lookahead=60 / rc=crf / mbtree=1 / crf=18.8 / qcomp=0.60 / qpmin=3 / qpmax=69 / qpstep=4 / ip_ratio=1.40 / aq=2:1.00
Language                                 : English
Default                                  : Yes
Forced                                   : No
Audio
Format/Info                              : Audio Coding 3
Mode extension                           : CM (complete main)
Codec ID                                 : A_AC3
Bit rate mode                            : Constant
Bit rate                                 : 224 Kbps
Channel(s)                               : 2 channels
Channel positions                        : Front: L R
Sampling rate                            : 48.0 KHz
Bit depth                                : 16 bits
Compression mode                         : Lossy
Stream size                              : 147 MiB (11%)
Language                                 : Portuguese
Default                                  : Yes
Forced                                   : No
Menu
00:00:00.000                             : Chapter 1
00:10:17.700                             : Chapter 2
00:20:04.244                             : Chapter 3
00:28:22.075                             : Chapter 4
00:37:34.001                             : Chapter 5
00:48:20.397                             : Chapter 6
01:00:06.728                             : Chapter 7
01:11:55.602                             : Chapter 8
01:18:56.231                             : Chapter 9
01:30:34.971                             : Chapter 10
01:31:42.538                             : Chapter 11

LANGUAGE: Portugese
No subs

My rip